<mxfile host="app.diagrams.net" agent="Mozilla/5.0 (Windows NT 10.0; Win64; x64) AppleWebKit/537.36 (KHTML, like Gecko) Chrome/141.0.0.0 Safari/537.36 Edg/141.0.0.0" version="28.2.7">
  <diagram id="C5RBs43oDa-KdzZeNtuy" name="Page-1">
    <mxGraphModel dx="1477" dy="814" grid="1" gridSize="10" guides="1" tooltips="1" connect="1" arrows="1" fold="1" page="1" pageScale="1" pageWidth="827" pageHeight="1169" math="0" shadow="0">
      <root>
        <mxCell id="WIyWlLk6GJQsqaUBKTNV-0" />
        <mxCell id="WIyWlLk6GJQsqaUBKTNV-1" parent="WIyWlLk6GJQsqaUBKTNV-0" />
        <mxCell id="zkfFHV4jXpPFQw0GAbJ--0" value="Interfaz" style="swimlane;fontStyle=0;align=center;verticalAlign=top;childLayout=stackLayout;horizontal=1;startSize=26;horizontalStack=0;resizeParent=1;resizeLast=0;collapsible=1;marginBottom=0;rounded=0;shadow=0;strokeWidth=1;" parent="WIyWlLk6GJQsqaUBKTNV-1" vertex="1">
          <mxGeometry x="100" y="217" width="470" height="456" as="geometry">
            <mxRectangle x="230" y="140" width="160" height="26" as="alternateBounds" />
          </mxGeometry>
        </mxCell>
        <mxCell id="7olKMwuhnKtr0dHqLhST-2" value="&lt;font style=&quot;font-size: 14px;&quot;&gt;- coordinador: Coordinador {static}&amp;nbsp;&lt;/font&gt;" style="text;html=1;whiteSpace=wrap;strokeColor=none;fillColor=none;align=center;verticalAlign=middle;rounded=0;" vertex="1" parent="zkfFHV4jXpPFQw0GAbJ--0">
          <mxGeometry y="26" width="470" height="30" as="geometry" />
        </mxCell>
        <mxCell id="7olKMwuhnKtr0dHqLhST-3" value="&lt;font style=&quot;font-size: 14px;&quot;&gt;&amp;nbsp;- rutasCompletas: List&amp;lt;List&amp;lt;Recorrido&amp;gt;&amp;gt; {static}&lt;/font&gt;" style="text;html=1;whiteSpace=wrap;strokeColor=none;fillColor=none;align=center;verticalAlign=middle;rounded=0;" vertex="1" parent="zkfFHV4jXpPFQw0GAbJ--0">
          <mxGeometry y="56" width="470" height="30" as="geometry" />
        </mxCell>
        <mxCell id="7olKMwuhnKtr0dHqLhST-5" value="&lt;font style=&quot;font-size: 14px;&quot;&gt;- indicePaginaActual: int {static}&lt;/font&gt;" style="text;html=1;whiteSpace=wrap;strokeColor=none;fillColor=none;align=center;verticalAlign=middle;rounded=0;" vertex="1" parent="zkfFHV4jXpPFQw0GAbJ--0">
          <mxGeometry y="86" width="470" height="30" as="geometry" />
        </mxCell>
        <mxCell id="7olKMwuhnKtr0dHqLhST-6" value="&lt;font style=&quot;font-size: 14px;&quot;&gt;&amp;nbsp;- ultimaConsultaParadaOrigen: Parada {static}&lt;/font&gt;" style="text;html=1;whiteSpace=wrap;strokeColor=none;fillColor=none;align=center;verticalAlign=middle;rounded=0;" vertex="1" parent="zkfFHV4jXpPFQw0GAbJ--0">
          <mxGeometry y="116" width="470" height="30" as="geometry" />
        </mxCell>
        <mxCell id="7olKMwuhnKtr0dHqLhST-9" value="&lt;font style=&quot;font-size: 14px;&quot;&gt;- ultimaConsultaParadaDestino: Parada {static}&lt;/font&gt;" style="text;html=1;whiteSpace=wrap;strokeColor=none;fillColor=none;align=center;verticalAlign=middle;rounded=0;" vertex="1" parent="zkfFHV4jXpPFQw0GAbJ--0">
          <mxGeometry y="146" width="470" height="30" as="geometry" />
        </mxCell>
        <mxCell id="7olKMwuhnKtr0dHqLhST-10" value="&lt;font style=&quot;font-size: 14px;&quot;&gt;- ultimaConsultaHoraLlegada: LocalTime {static}&lt;/font&gt;" style="text;html=1;whiteSpace=wrap;strokeColor=none;fillColor=none;align=center;verticalAlign=middle;rounded=0;" vertex="1" parent="zkfFHV4jXpPFQw0GAbJ--0">
          <mxGeometry y="176" width="470" height="30" as="geometry" />
        </mxCell>
        <mxCell id="7olKMwuhnKtr0dHqLhST-11" value="&lt;font style=&quot;font-size: 14px;&quot;&gt;+ setCoordinador(coord: Coordinador): void {static}&lt;/font&gt;" style="text;html=1;whiteSpace=wrap;strokeColor=none;fillColor=none;align=center;verticalAlign=middle;rounded=0;" vertex="1" parent="zkfFHV4jXpPFQw0GAbJ--0">
          <mxGeometry y="206" width="470" height="30" as="geometry" />
        </mxCell>
        <mxCell id="7olKMwuhnKtr0dHqLhST-13" value="&lt;font style=&quot;font-size: 14px;&quot;&gt;&amp;nbsp;+ start(escenarioPrincipal: Stage): void&amp;nbsp;&amp;nbsp;&lt;/font&gt;" style="text;html=1;whiteSpace=wrap;strokeColor=none;fillColor=none;align=center;verticalAlign=middle;rounded=0;" vertex="1" parent="zkfFHV4jXpPFQw0GAbJ--0">
          <mxGeometry y="236" width="470" height="30" as="geometry" />
        </mxCell>
        <mxCell id="7olKMwuhnKtr0dHqLhST-18" value="&lt;font style=&quot;font-size: 14px;&quot;&gt;+ resultado(listaRecorridos: List&amp;lt;List&amp;lt;Recorrido&amp;gt;&amp;gt;,&lt;/font&gt;" style="text;html=1;whiteSpace=wrap;strokeColor=none;fillColor=none;align=center;verticalAlign=middle;rounded=0;" vertex="1" parent="zkfFHV4jXpPFQw0GAbJ--0">
          <mxGeometry y="266" width="470" height="30" as="geometry" />
        </mxCell>
        <mxCell id="7olKMwuhnKtr0dHqLhST-19" value="&lt;font style=&quot;font-size: 14px;&quot;&gt;+resultado(listaRecorridos:List&amp;lt;List&amp;lt;Recorrido&amp;gt;&amp;gt;,&amp;nbsp;&amp;nbsp;paradaOrigen:Parada, paradaDestino: Parada,&amp;nbsp; horaLlegaParada: LocalTime): void {static}&lt;/font&gt;" style="text;html=1;whiteSpace=wrap;strokeColor=none;fillColor=none;align=center;verticalAlign=middle;rounded=0;" vertex="1" parent="zkfFHV4jXpPFQw0GAbJ--0">
          <mxGeometry y="296" width="470" height="70" as="geometry" />
        </mxCell>
        <mxCell id="7olKMwuhnKtr0dHqLhST-24" value="&lt;span style=&quot;font-size: 14px;&quot;&gt;+ lanzarAplicacion(coord: Coordinador,&amp;nbsp; args: String[]): void {static}&lt;/span&gt;" style="text;html=1;whiteSpace=wrap;strokeColor=none;fillColor=none;align=center;verticalAlign=middle;rounded=0;" vertex="1" parent="zkfFHV4jXpPFQw0GAbJ--0">
          <mxGeometry y="366" width="470" height="30" as="geometry" />
        </mxCell>
        <mxCell id="7olKMwuhnKtr0dHqLhST-23" value="&lt;font style=&quot;font-size: 14px;&quot;&gt;&amp;nbsp;- mostrarPaginaActual(...): void {static}&lt;/font&gt;" style="text;html=1;whiteSpace=wrap;strokeColor=none;fillColor=none;align=center;verticalAlign=middle;rounded=0;" vertex="1" parent="zkfFHV4jXpPFQw0GAbJ--0">
          <mxGeometry y="396" width="470" height="30" as="geometry" />
        </mxCell>
        <mxCell id="7olKMwuhnKtr0dHqLhST-49" value="&lt;font style=&quot;font-size: 14px;&quot;&gt;- manejarCalculo&lt;/font&gt;" style="text;html=1;whiteSpace=wrap;strokeColor=none;fillColor=none;align=center;verticalAlign=middle;rounded=0;" vertex="1" parent="zkfFHV4jXpPFQw0GAbJ--0">
          <mxGeometry y="426" width="470" height="30" as="geometry" />
        </mxCell>
        <mxCell id="7olKMwuhnKtr0dHqLhST-41" value="Interfaz" style="swimlane;fontStyle=0;childLayout=stackLayout;horizontal=1;startSize=30;horizontalStack=0;resizeParent=1;resizeParentMax=0;resizeLast=0;collapsible=1;marginBottom=0;whiteSpace=wrap;html=1;" vertex="1" parent="WIyWlLk6GJQsqaUBKTNV-1">
          <mxGeometry x="90" y="160" width="140" height="30" as="geometry" />
        </mxCell>
        <mxCell id="7olKMwuhnKtr0dHqLhST-45" value="" style="swimlane;fontStyle=0;childLayout=stackLayout;horizontal=1;startSize=0;horizontalStack=0;resizeParent=1;resizeParentMax=0;resizeLast=0;collapsible=1;marginBottom=0;whiteSpace=wrap;html=1;" vertex="1" parent="WIyWlLk6GJQsqaUBKTNV-1">
          <mxGeometry x="90" y="190" width="650" height="520" as="geometry" />
        </mxCell>
      </root>
    </mxGraphModel>
  </diagram>
</mxfile>
